<?xml version="1.0" encoding="UTF-8"?>
<svg width="1600" height="1000" viewBox="0 0 1600 1000" xmlns="http://www.w3.org/2000/svg">
  <!-- Court Surface -->
  <rect width="1600" height="1000" fill="#8B4513" />

  <!-- Court Boundary -->
  <rect x="0" y="0" width="1600" height="1000" fill="none" stroke="#ffffff" stroke-width="8" />

  <!-- Center Court Line -->
  <line x1="800" y1="0" x2="800" y2="1000" stroke="#ffffff" stroke-width="4" />

  <!-- Center Circle -->
  <circle cx="800" cy="500" r="120" fill="none" stroke="#ffffff" stroke-width="4" />

  <!-- Left Side (Defensive End) -->
  <!-- Left Free Throw Lane (Paint/Key) -->
  <rect x="40" y="215" width="190" height="570" fill="none" stroke="#ffffff" stroke-width="4" />

  <!-- Left Free Throw Circle -->
  <circle cx="230" cy="500" r="60" fill="none" stroke="#ffffff" stroke-width="4" />

  <!-- Left Three-Point Arc -->
  <path d="M 40 100 A 280 280 0 0 0 40 900" fill="none" stroke="#ffffff" stroke-width="4" />

  <!-- Left Basket -->
  <circle cx="60" cy="500" r="18" fill="none" stroke="#FF6600" stroke-width="6" />

  <!-- Right Side (Offensive End) -->
  <!-- Right Free Throw Lane (Paint/Key) -->
  <rect x="1370" y="215" width="190" height="570" fill="none" stroke="#ffffff" stroke-width="4" />

  <!-- Right Free Throw Circle -->
  <circle cx="1370" cy="500" r="60" fill="none" stroke="#ffffff" stroke-width="4" />

  <!-- Right Three-Point Arc -->
  <path d="M 1560 100 A 280 280 0 0 1 1560 900" fill="none" stroke="#ffffff" stroke-width="4" />

  <!-- Right Basket -->
  <circle cx="1540" cy="500" r="18" fill="none" stroke="#FF6600" stroke-width="6" />

  <!-- Free Throw Lines -->
  <line x1="230" y1="215" x2="230" y2="785" stroke="#ffffff" stroke-width="4" />
  <line x1="1370" y1="215" x2="1370" y2="785" stroke="#ffffff" stroke-width="4" />
</svg>